<?xml version="1.0" encoding="iso-8859-1"?>
<!-- Generator: Adobe Illustrator 17.1.0, SVG Export Plug-In . SVG Version: 6.00 Build 0)  -->
<!DOCTYPE svg PUBLIC "-//W3C//DTD SVG 1.1//EN" "http://www.w3.org/Graphics/SVG/1.1/DTD/svg11.dtd">
<svg xmlns="http://www.w3.org/2000/svg" xmlns:xlink="http://www.w3.org/1999/xlink" version="1.1" id="Capa_1" x="0px" y="0px" viewBox="0 0 296.723 296.723" style="enable-background:new 0 0 296.723 296.723;" xml:space="preserve" width="512px" height="512px">
<g>
	<path d="M148.361,42.758C92.317,42.758,39.629,64.583,0,104.212l22.627,22.627c33.585-33.585,78.238-52.081,125.734-52.081   c47.497,0,92.149,18.496,125.734,52.081l22.627-22.627C257.095,64.583,204.405,42.758,148.361,42.758z" fill="#e393a1"/>
	<path d="M40.193,144.405l22.627,22.627c22.849-22.849,53.227-35.433,85.541-35.433c32.313,0,62.692,12.583,85.539,35.433   l22.629-22.627C227.638,115.512,189.223,99.6,148.361,99.6S69.085,115.512,40.193,144.405z" fill="#e393a1"/>
	<path d="M80.432,184.646l22.629,22.627c12.1-12.102,28.188-18.766,45.302-18.766c17.112,0,33.201,6.664,45.301,18.766   l22.629-22.627c-18.145-18.145-42.269-28.139-67.93-28.139C122.7,156.507,98.576,166.5,80.432,184.646z" fill="#e393a1"/>
	<path d="M148.362,220.088c-8.315,0-16.629,3.171-22.974,9.514c-0.222,0.222-0.43,0.451-0.644,0.677l23.616,23.687l23.677-23.621   c-0.233-0.249-0.463-0.5-0.705-0.742C164.989,223.259,156.676,220.088,148.362,220.088z" fill="#e393a1"/>
</g>
<g>
</g>
<g>
</g>
<g>
</g>
<g>
</g>
<g>
</g>
<g>
</g>
<g>
</g>
<g>
</g>
<g>
</g>
<g>
</g>
<g>
</g>
<g>
</g>
<g>
</g>
<g>
</g>
<g>
</g>
</svg>
